HIERARCHY
ROOT newVegas:Hips
{
	OFFSET 0.000000 96.479958 0.000000
	CHANNELS 6 Xposition Yposition Zposition Xrotation Yrotation Zrotation
	JOINT newVegas:Pelvis
	{
		OFFSET 0.000000 0.000000 0.000000
		CHANNELS 3 Xrotation Yrotation Zrotation
		JOINT newVegas:LeftUpLeg
		{
			OFFSET 18.735201 -5.666702 -4.541200
			CHANNELS 3 Xrotation Yrotation Zrotation
			JOINT newVegas:LeftLeg
			{
				OFFSET -0.021200 -31.938179 0.493100
				CHANNELS 3 Xrotation Yrotation Zrotation
				JOINT newVegas:LeftFoot
				{
					OFFSET 0.021200 -31.938179 -4.336299
					CHANNELS 3 Xrotation Yrotation Zrotation
					JOINT newVegas:LeftToeBase
					{
						OFFSET 0.943001 -26.722000 15.023500
						CHANNELS 3 Xrotation Yrotation Zrotation
						End Site
						{
							OFFSET 0.000000 30.670183 0.000000
						}
					}
				}
				JOINT newVegas:Left_PantLeg
				{
					OFFSET 0.663870 -9.044666 -1.108900
					CHANNELS 3 Xrotation Yrotation Zrotation
					End Site
					{
						OFFSET 1.415995 20.635357 0.000000
					}
				}
			}
		}
		JOINT newVegas:RightUpLeg
		{
			OFFSET -18.735201 -5.666702 -4.541200
			CHANNELS 3 Xrotation Yrotation Zrotation
			JOINT newVegas:RightLeg
			{
				OFFSET 0.018946 -31.938133 0.493100
				CHANNELS 3 Xrotation Yrotation Zrotation
				JOINT newVegas:RightFoot
				{
					OFFSET -0.018946 -31.938126 -4.336299
					CHANNELS 3 Xrotation Yrotation Zrotation
					JOINT newVegas:RightToeBase
					{
						OFFSET -0.943001 -26.722004 15.023500
						CHANNELS 3 Xrotation Yrotation Zrotation
						End Site
						{
							OFFSET 0.000000 30.670187 0.000000
						}
					}
				}
				JOINT newVegas:Right_PantLeg
				{
					OFFSET -0.661674 -9.044716 -1.108900
					CHANNELS 3 Xrotation Yrotation Zrotation
					End Site
					{
						OFFSET -1.415958 20.635269 0.000000
					}
				}
			}
		}
	}
	JOINT newVegas:Spine
	{
		OFFSET 0.000000 10.199997 -0.299500
		CHANNELS 3 Xrotation Yrotation Zrotation
		JOINT newVegas:Spine1
		{
			OFFSET 0.000000 11.900002 -1.516600
			CHANNELS 3 Xrotation Yrotation Zrotation
			JOINT newVegas:Spine2
			{
				OFFSET 0.000000 13.600006 -2.842500
				CHANNELS 3 Xrotation Yrotation Zrotation
				JOINT newVegas:Neck
				{
					OFFSET 0.000000 9.624100 -2.890100
					CHANNELS 3 Xrotation Yrotation Zrotation
					JOINT newVegas:Head
					{
						OFFSET 0.000000 14.068802 -1.351900
						CHANNELS 3 Xrotation Yrotation Zrotation
						JOINT newVegas:Hair_Back
						{
							OFFSET 0.000000 3.231903 -17.524799
							CHANNELS 3 Xrotation Yrotation Zrotation
							End Site
							{
								OFFSET 0.000000 19.849884 0.000000
							}
						}
						JOINT newVegas:Hair_Front
						{
							OFFSET 0.000000 31.260406 4.573800
							CHANNELS 3 Xrotation Yrotation Zrotation
							JOINT newVegas:Hair_Front1
							{
								OFFSET 0.000000 2.284103 11.993300
								CHANNELS 3 Xrotation Yrotation Zrotation
								JOINT newVegas:Hair_Front2
								{
									OFFSET 0.000000 2.284103 11.993300
									CHANNELS 3 Xrotation Yrotation Zrotation
									End Site
									{
										OFFSET 0.000000 12.208862 0.000000
									}
								}
							}
						}
						JOINT newVegas:Jowel
						{
							OFFSET 0.000000 -7.458206 6.864100
							CHANNELS 3 Xrotation Yrotation Zrotation
							End Site
							{
								OFFSET 0.000000 19.849884 0.000000
							}
						}
					}
				}
				JOINT newVegas:LeftShoulder
				{
					OFFSET 15.263000 10.923401 -0.547700
					CHANNELS 3 Xrotation Yrotation Zrotation
					JOINT newVegas:LeftArm
					{
						OFFSET 25.438599 -2.830597 -13.032500
						CHANNELS 3 Xrotation Yrotation Zrotation
						JOINT newVegas:LeftForeArm
						{
							OFFSET 29.960503 0.000000 0.000000
							CHANNELS 3 Xrotation Yrotation Zrotation
							JOINT newVegas:LeftHand
							{
								OFFSET 27.849251 0.000000 0.000000
								CHANNELS 3 Xrotation Yrotation Zrotation
								JOINT newVegas:LeftHandThumb1
								{
									OFFSET 4.487587 -3.305161 6.305391
									CHANNELS 3 Xrotation Yrotation Zrotation
									JOINT newVegas:LeftHandThumb2
									{
										OFFSET 5.480453 -3.164139 3.164143
										CHANNELS 3 Xrotation Yrotation Zrotation
										JOINT newVegas:LeftHandThumb3
										{
											OFFSET 5.159721 -2.978973 2.978967
											CHANNELS 3 Xrotation Yrotation Zrotation
											End Site
											{
												OFFSET 2.494507 5.926697 1.738678
											}
										}
									}
								}
								JOINT newVegas:LeftHandIndex1
								{
									OFFSET 18.578728 -0.527832 5.208049
									CHANNELS 3 Xrotation Yrotation Zrotation
									JOINT newVegas:LeftHandIndex2
									{
										OFFSET 3.192009 0.000000 0.000000
										CHANNELS 3 Xrotation Yrotation Zrotation
										JOINT newVegas:LeftHandIndex3
										{
											OFFSET 3.835129 0.000000 0.000000
											CHANNELS 3 Xrotation Yrotation Zrotation
											End Site
											{
												OFFSET -0.034599 3.816971 0.371180
											}
										}
									}
								}
								JOINT newVegas:LeftHandMiddle1
								{
									OFFSET 18.476105 0.000000 0.000000
									CHANNELS 3 Xrotation Yrotation Zrotation
									JOINT newVegas:LeftHandMiddle2
									{
										OFFSET 3.324875 0.000000 0.000000
										CHANNELS 3 Xrotation Yrotation Zrotation
										JOINT newVegas:LeftHandMiddle3
										{
											OFFSET 4.596550 0.000000 0.000000
											CHANNELS 3 Xrotation Yrotation Zrotation
											End Site
											{
												OFFSET 0.057701 4.578827 0.399218
											}
										}
									}
								}
								JOINT newVegas:LeftHandRing1
								{
									OFFSET 17.732719 0.121887 -4.201567
									CHANNELS 3 Xrotation Yrotation Zrotation
									JOINT newVegas:LeftHandRing2
									{
										OFFSET 2.733170 0.000000 0.000000
										CHANNELS 3 Xrotation Yrotation Zrotation
										JOINT newVegas:LeftHandRing3
										{
											OFFSET 3.178268 0.000000 0.000000
											CHANNELS 3 Xrotation Yrotation Zrotation
											End Site
											{
												OFFSET 0.119102 3.170624 0.185394
											}
										}
									}
								}
								JOINT newVegas:LeftHandPinky1
								{
									OFFSET 15.989624 -0.606689 -7.535461
									CHANNELS 3 Xrotation Yrotation Zrotation
									JOINT newVegas:LeftHandPinky2
									{
										OFFSET 2.538986 0.000000 0.000000
										CHANNELS 3 Xrotation Yrotation Zrotation
										JOINT newVegas:LeftHandPinky3
										{
											OFFSET 2.593102 0.000000 0.000000
											CHANNELS 3 Xrotation Yrotation Zrotation
											End Site
											{
												OFFSET -0.150902 2.584198 0.152708
											}
										}
									}
								}
							}
							JOINT newVegas:Left_Sleeve
							{
								OFFSET 0.267448 -0.649796 0.577675
								CHANNELS 3 Xrotation Yrotation Zrotation
								End Site
								{
									OFFSET 0.000000 15.991241 0.000000
								}
							}
							JOINT newVegas:Left_CapeC
							{
								OFFSET 15.715958 -8.608795 -6.935905
								CHANNELS 3 Xrotation Yrotation Zrotation
								JOINT newVegas:Left_CapeC1
								{
									OFFSET 0.000000 -8.688499 0.000000
									CHANNELS 3 Xrotation Yrotation Zrotation
									End Site
									{
										OFFSET 0.000000 8.688499 0.000000
									}
								}
							}
						}
						JOINT newVegas:Left_CapeB
						{
							OFFSET 26.118385 -8.608795 -7.079235
							CHANNELS 3 Xrotation Yrotation Zrotation
							JOINT newVegas:Left_CapeB1
							{
								OFFSET 0.000000 -8.688499 0.000000
								CHANNELS 3 Xrotation Yrotation Zrotation
								End Site
								{
									OFFSET 0.000000 8.688499 0.000000
								}
							}
						}
						JOINT newVegas:Left_CapeA
						{
							OFFSET 5.115639 -8.608795 -10.395809
							CHANNELS 3 Xrotation Yrotation Zrotation
							JOINT newVegas:Left_CapeA1
							{
								OFFSET 0.000000 -8.688499 0.000000
								CHANNELS 3 Xrotation Yrotation Zrotation
								End Site
								{
									OFFSET 0.000000 8.688499 0.000000
								}
							}
						}
					}
				}
				JOINT newVegas:RightShoulder
				{
					OFFSET -15.263000 10.923401 -0.547700
					CHANNELS 3 Xrotation Yrotation Zrotation
					JOINT newVegas:RightArm
					{
						OFFSET -25.438599 -2.830597 -13.032500
						CHANNELS 3 Xrotation Yrotation Zrotation
						JOINT newVegas:RightForeArm
						{
							OFFSET -29.960503 0.000000 0.000000
							CHANNELS 3 Xrotation Yrotation Zrotation
							JOINT newVegas:RightHand
							{
								OFFSET -27.849251 0.000000 0.000000
								CHANNELS 3 Xrotation Yrotation Zrotation
								JOINT newVegas:RightHandThumb1
								{
									OFFSET -4.487587 -3.305161 6.305391
									CHANNELS 3 Xrotation Yrotation Zrotation
									JOINT newVegas:RightHandThumb2
									{
										OFFSET -5.480453 -3.164139 3.164143
										CHANNELS 3 Xrotation Yrotation Zrotation
										JOINT newVegas:RightHandThumb3
										{
											OFFSET -5.159721 -2.978973 2.978967
											CHANNELS 3 Xrotation Yrotation Zrotation
											End Site
											{
												OFFSET -2.494507 5.926697 1.738678
											}
										}
									}
								}
								JOINT newVegas:RightHandIndex1
								{
									OFFSET -18.578728 -0.527832 5.208049
									CHANNELS 3 Xrotation Yrotation Zrotation
									JOINT newVegas:RightHandIndex2
									{
										OFFSET -3.192009 0.000000 0.000000
										CHANNELS 3 Xrotation Yrotation Zrotation
										JOINT newVegas:RightHandIndex3
										{
											OFFSET -3.835129 0.000000 0.000000
											CHANNELS 3 Xrotation Yrotation Zrotation
											End Site
											{
												OFFSET 0.034599 3.816971 0.371180
											}
										}
									}
								}
								JOINT newVegas:RightHandMiddle1
								{
									OFFSET -18.476105 0.000000 0.000000
									CHANNELS 3 Xrotation Yrotation Zrotation
									JOINT newVegas:RightHandMiddle2
									{
										OFFSET -3.324875 0.000000 0.000000
										CHANNELS 3 Xrotation Yrotation Zrotation
										JOINT newVegas:RightHandMiddle3
										{
											OFFSET -4.596550 0.000000 0.000000
											CHANNELS 3 Xrotation Yrotation Zrotation
											End Site
											{
												OFFSET -0.057701 4.578827 0.399218
											}
										}
									}
								}
								JOINT newVegas:RightHandRing1
								{
									OFFSET -17.732719 0.121887 -4.201567
									CHANNELS 3 Xrotation Yrotation Zrotation
									JOINT newVegas:RightHandRing2
									{
										OFFSET -2.733170 0.000000 0.000000
										CHANNELS 3 Xrotation Yrotation Zrotation
										JOINT newVegas:RightHandRing3
										{
											OFFSET -3.178268 0.000000 0.000000
											CHANNELS 3 Xrotation Yrotation Zrotation
											End Site
											{
												OFFSET -0.119102 3.170624 0.185394
											}
										}
									}
								}
								JOINT newVegas:RightHandPinky1
								{
									OFFSET -15.989624 -0.606689 -7.535461
									CHANNELS 3 Xrotation Yrotation Zrotation
									JOINT newVegas:RightHandPinky2
									{
										OFFSET -2.538986 0.000000 0.000000
										CHANNELS 3 Xrotation Yrotation Zrotation
										JOINT newVegas:RightHandPinky3
										{
											OFFSET -2.593102 0.000000 0.000000
											CHANNELS 3 Xrotation Yrotation Zrotation
											End Site
											{
												OFFSET 0.150902 2.584198 0.152708
											}
										}
									}
								}
							}
							JOINT newVegas:Right_CapeC
							{
								OFFSET -15.715958 -8.608795 -6.935905
								CHANNELS 3 Xrotation Yrotation Zrotation
								JOINT newVegas:Right_CapeC1
								{
									OFFSET 0.000000 -8.688499 0.000000
									CHANNELS 3 Xrotation Yrotation Zrotation
									End Site
									{
										OFFSET 0.000000 8.688499 0.000000
									}
								}
							}
							JOINT newVegas:Right_Sleeve
							{
								OFFSET -0.267448 -0.649994 0.577675
								CHANNELS 3 Xrotation Yrotation Zrotation
								End Site
								{
									OFFSET 0.000000 15.991302 0.000000
								}
							}
						}
						JOINT newVegas:Right_CapeA
						{
							OFFSET -5.115540 -8.608795 -10.395824
							CHANNELS 3 Xrotation Yrotation Zrotation
							JOINT newVegas:Right_CapeA1
							{
								OFFSET 0.000000 -8.688499 0.000000
								CHANNELS 3 Xrotation Yrotation Zrotation
								End Site
								{
									OFFSET 0.000000 8.688499 0.000000
								}
							}
						}
						JOINT newVegas:Right_CapeB
						{
							OFFSET -26.118187 -8.608795 -7.079266
							CHANNELS 3 Xrotation Yrotation Zrotation
							JOINT newVegas:Right_CapeB1
							{
								OFFSET 0.000000 -8.688499 0.000000
								CHANNELS 3 Xrotation Yrotation Zrotation
								End Site
								{
									OFFSET 0.000000 8.688499 0.000000
								}
							}
						}
					}
				}
				JOINT newVegas:Left_Collar
				{
					OFFSET 18.625099 8.655502 8.828100
					CHANNELS 3 Xrotation Yrotation Zrotation
					JOINT newVegas:Left_Collar1
					{
						OFFSET 14.783401 10.540405 -1.259500
						CHANNELS 3 Xrotation Yrotation Zrotation
						End Site
						{
							OFFSET 0.000000 18.199875 0.000000
						}
					}
				}
				JOINT newVegas:Collar_Back
				{
					OFFSET 0.000000 15.630707 -20.132601
					CHANNELS 3 Xrotation Yrotation Zrotation
					End Site
					{
						OFFSET 0.000000 22.523010 0.000000
					}
				}
				JOINT newVegas:Left_Peck
				{
					OFFSET 17.239599 -5.132599 25.482599
					CHANNELS 3 Xrotation Yrotation Zrotation
					End Site
					{
						OFFSET 0.000000 22.523010 0.000000
					}
				}
				JOINT newVegas:Right_Peck
				{
					OFFSET -17.239599 -5.132202 25.482599
					CHANNELS 3 Xrotation Yrotation Zrotation
					End Site
					{
						OFFSET 0.000000 22.523010 0.000000
					}
				}
				JOINT newVegas:Right_Collar
				{
					OFFSET -18.625099 8.655792 8.828100
					CHANNELS 3 Xrotation Yrotation Zrotation
					JOINT newVegas:Right_Collar1
					{
						OFFSET -14.783401 10.539993 -1.259500
						CHANNELS 3 Xrotation Yrotation Zrotation
						End Site
						{
							OFFSET 0.000000 18.199631 0.000000
						}
					}
				}
			}
		}
		JOINT newVegas:Belly
		{
			OFFSET 0.000000 -6.540398 9.014299
			CHANNELS 3 Xrotation Yrotation Zrotation
			End Site
			{
				OFFSET 0.000000 11.566666 0.000000
			}
		}
	}
	JOINT newVegas:ElvisFacialAnim_Joint
	{
		OFFSET 1.000000 -95.330101 -8.825800
		CHANNELS 3 Xrotation Yrotation Zrotation
		End Site
		{
			OFFSET 0.000000 35.315800 0.000000
		}
	}
}
MOTION
Frames: 4
Frame Time: 0.033333
-0.779548 85.063904 4.238354 18.491957 -9.813892 0.200474 -0.000001 0.000000 -0.000000 -92.701889 7.547488 15.581690 130.899865 -9.423331 0.039759 -21.735539 5.381829 16.548015 -0.000001 -0.000000 0.000000 -0.000005 -0.000001 -0.000000 -19.456651 -3.950647 7.350159 42.499179 -8.762654 -4.224341 -30.688679 -2.441204 4.950072 -0.000000 0.000000 -0.000000 0.000001 -0.000000 -0.000000 6.345041 2.969490 1.507296 12.477720 6.820915 4.488098 12.477718 6.820914 4.488099 -0.182847 0.057746 -1.095634 -0.182841 0.057745 -1.095636 -0.000000 0.000000 0.000000 -0.182911 0.057772 -1.095644 -0.182809 0.057728 -1.095634 -0.000002 0.000001 0.000001 -0.000000 0.000000 0.000001 5.025551 6.335391 2.102144 48.432660 1.938808 -64.475551 2.951341 -112.185133 2.568428 6.834835 -10.071733 17.953676 -5.243338 1.770743 19.768989 28.218180 26.004750 -7.991094 0.000001 -0.000003 0.000000 -8.868359 -8.397043 -49.519695 -12.326107 0.394628 -101.596680 0.000001 -0.000001 0.000001 -7.297523 -0.985679 -74.832488 -12.566658 -1.714380 -93.376138 0.000002 0.000001 -0.000000 3.968772 5.350998 -91.609482 0.974278 -6.628652 -93.407283 -0.000001 0.000001 -0.000000 16.361682 18.555993 -87.138618 8.535488 -13.434255 -110.579854 -0.000000 -0.000002 0.000001 -0.000000 0.000001 -0.000000 -0.000000 0.000001 -0.000000 -0.000001 0.000001 0.000000 -0.000002 -0.000001 -0.000001 -0.000002 -0.000001 -0.000002 -0.000002 -0.000001 -0.000001 -0.000001 -0.000001 -0.000001 -0.226223 13.923059 1.315909 -57.690161 29.469794 67.361730 -0.610490 107.824440 -0.200399 21.480277 15.872356 2.915084 -3.068403 -5.263772 -16.140067 13.534183 -18.145060 -10.166439 0.000000 -0.000004 -0.000001 -5.779491 -2.559695 64.125040 -10.096223 -3.160012 105.184449 -0.000000 -0.000003 -0.000001 -5.689799 -3.129555 76.352656 -9.543195 0.089986 86.212990 0.000000 0.000000 0.000001 6.099620 -3.159686 95.388865 -1.634708 9.414315 91.975867 -0.000001 0.000001 -0.000002 16.748884 -16.101334 81.328702 1.164780 19.291880 108.465330 -0.000002 0.000007 0.000001 -0.000000 0.000002 0.000001 -0.000001 0.000002 0.000001 -0.000000 0.000002 0.000001 -0.000001 -0.000001 0.000001 -0.000001 0.000000 0.000001 -0.000001 -0.000001 0.000001 -0.000000 -0.000000 0.000001 0.000002 0.000000 -0.000001 0.000002 0.000000 -0.000001 0.000002 0.000000 -0.000001 0.000002 0.000000 -0.000001 0.000002 0.000000 -0.000001 0.000002 0.000000 -0.000001 0.000002 0.000000 -0.000001 -0.000001 -0.000000 -0.000000 -0.000001 0.000000 -0.000000 
-1.490392 83.617531 18.289724 17.866590 -14.994618 3.176882 -0.000002 0.000001 -0.000000 -105.199653 6.133653 21.662946 108.122919 0.707741 -2.520510 14.787744 6.133954 14.542478 0.000002 0.000000 -0.000000 -0.000002 -0.000002 0.000001 -6.957598 -6.425388 0.936500 37.032254 0.283467 -7.443959 -28.924509 -3.209124 7.984271 -0.000003 -0.000001 -0.000000 0.000002 0.000003 -0.000001 8.820663 4.263933 0.150689 17.749032 8.072723 -0.807362 17.749018 8.072724 -0.807363 0.383115 -0.085815 -0.276582 0.383149 -0.085818 -0.276580 -0.000002 0.000000 -0.000000 0.383102 -0.085801 -0.276587 0.383119 -0.085837 -0.276578 0.000000 -0.000000 -0.000000 -0.000002 0.000000 -0.000000 3.538307 16.393105 2.315891 49.129571 1.370684 -65.130280 2.367364 -114.912414 3.550470 7.597645 -8.567353 31.036308 -6.950222 -3.068859 15.651549 10.717362 19.696650 -5.009997 0.000001 -0.000000 -0.000001 -7.322040 -8.041949 -44.476406 -11.222582 -0.957998 -91.716176 0.000000 -0.000001 0.000001 -6.489338 -1.442140 -67.171898 -11.277233 -3.025458 -83.732908 0.000000 -0.000000 -0.000001 3.424941 6.329434 -82.733917 1.255763 -5.650508 -83.917248 0.000000 -0.000001 -0.000001 13.356121 19.905290 -78.383237 8.430135 -10.891523 -100.281145 0.000002 -0.000002 -0.000002 -0.000000 0.000000 0.000002 -0.000000 0.000000 0.000002 -0.000001 0.000000 0.000002 -0.000001 0.000001 0.000001 -0.000001 0.000000 0.000000 -0.000001 0.000001 0.000001 -0.000000 0.000002 0.000001 -0.817910 10.530666 -7.841432 -63.120346 33.007043 58.708010 -11.646094 105.348039 6.890909 25.226358 20.861049 -4.110760 -3.055014 -5.528552 -13.817211 11.086704 -15.841536 -11.209578 0.000001 0.000000 -0.000000 -5.691856 -1.793250 56.801796 -9.525127 -1.701583 94.266651 0.000000 -0.000001 -0.000001 -5.614605 -2.451001 68.074583 -8.681633 1.130959 77.008266 0.000000 -0.000001 -0.000000 5.655552 -4.611226 85.348029 -0.751089 8.402440 82.462206 -0.000002 -0.000003 0.000001 14.277879 -17.265805 73.083796 2.615730 17.029328 96.919305 0.000001 0.000002 -0.000001 0.000001 0.000003 -0.000003 -0.000000 -0.000003 -0.000003 0.000001 0.000003 -0.000002 0.000003 0.000000 0.000001 0.000003 0.000001 0.000000 0.000003 0.000000 0.000001 0.000003 0.000001 0.000000 -0.000001 0.000000 -0.000000 -0.000001 0.000000 -0.000000 -0.000001 0.000000 -0.000000 -0.000001 0.000000 -0.000000 -0.000001 0.000000 -0.000000 -0.000001 0.000000 -0.000000 -0.000001 0.000000 -0.000000 -0.000000 -0.000000 -0.000000 -0.000002 0.000001 -0.000000 
-2.009987 82.448944 32.621330 23.754966 -15.648558 7.179758 0.000004 0.000002 -0.000000 -106.025382 2.897974 18.655647 79.692585 4.787866 -6.061070 30.900336 2.149015 6.028249 -0.000001 0.000000 -0.000000 -0.000000 0.000000 -0.000000 -3.368299 -5.817503 -5.332346 27.417226 2.727558 -6.979556 -13.693822 -2.737559 12.938001 0.000001 0.000000 0.000002 0.000003 -0.000000 -0.000002 9.516472 5.089003 -1.515906 19.309616 8.767135 -4.384888 19.309618 8.767136 -4.384885 1.661424 -0.172912 0.324633 1.661426 -0.172914 0.324635 -0.000003 -0.000001 -0.000000 1.661432 -0.172912 0.324637 1.661468 -0.172911 0.324635 -0.000001 0.000000 -0.000000 -0.000003 -0.000001 -0.000000 0.539767 18.853701 3.432585 46.712196 3.330528 -62.975355 6.059114 -105.477703 1.641208 7.886083 -10.356589 24.517666 -9.113929 -2.028452 7.002114 -1.187885 9.108419 -1.649722 0.000001 -0.000000 -0.000005 -4.165536 -6.507629 -33.023247 -7.763214 -2.760892 -69.018775 -0.000001 -0.000002 0.000002 -4.365799 -1.825481 -49.643150 -7.540023 -4.564967 -61.540059 0.000000 0.000000 -0.000000 1.915902 7.669528 -62.310375 1.247089 -3.726617 -62.253650 0.000001 -0.000001 -0.000000 6.750845 20.304407 -57.875826 6.332655 -6.457187 -76.820162 -0.000001 -0.000005 0.000000 0.000001 -0.000000 0.000000 0.000001 -0.000000 0.000000 0.000001 -0.000000 0.000000 0.000001 0.000001 0.000001 0.000001 0.000000 0.000000 0.000001 0.000001 0.000001 0.000001 0.000002 0.000001 -1.026356 11.775951 -11.605561 -58.380735 26.096396 41.333282 -30.186007 99.407236 21.891301 26.222022 18.311199 -15.668283 -4.071035 -6.813067 -8.984590 6.671570 -10.614044 -11.600667 -0.000000 -0.000002 -0.000001 -4.857666 -0.338244 39.997772 -6.973461 0.615318 69.219275 0.000001 0.000001 0.000001 -4.779266 -1.182288 49.120227 -6.032119 2.507340 55.860726 0.000001 -0.000001 0.000001 4.088998 -6.865847 62.118617 0.401831 5.987199 60.823388 -0.000003 -0.000001 -0.000002 8.933165 -17.803440 53.819691 3.669288 11.984258 71.045907 0.000003 -0.000004 -0.000001 -0.000000 -0.000001 -0.000002 -0.000003 -0.000003 0.000001 -0.000000 -0.000001 0.000001 -0.000002 -0.000002 0.000002 -0.000001 -0.000001 0.000003 -0.000002 -0.000002 0.000002 -0.000001 -0.000001 0.000004 0.000000 0.000000 -0.000000 0.000000 0.000000 -0.000000 0.000000 0.000000 -0.000000 0.000000 0.000000 -0.000000 0.000000 0.000000 -0.000000 0.000000 0.000000 -0.000000 0.000000 0.000000 -0.000000 -0.000001 0.000000 -0.000000 0.000004 0.000002 -0.000000 
-1.948288 81.909264 45.027370 35.461984 -10.234367 9.080089 0.000002 0.000001 -0.000001 -105.605298 -1.045804 11.587484 50.047719 16.158667 -7.882260 20.942762 -3.144058 -4.504214 0.000000 0.000001 -0.000001 0.000000 -0.000000 0.000000 -8.219865 -2.446533 -7.056433 18.103184 -2.143419 -4.399980 4.761007 -0.480934 14.872225 -0.000002 0.000001 -0.000000 0.000000 -0.000001 -0.000001 8.049851 4.293039 -2.356602 16.330277 8.076075 -5.317974 16.330287 8.076075 -5.317970 3.701072 -0.200165 0.805302 3.701037 -0.200173 0.805303 0.000001 0.000001 -0.000000 3.701124 -0.200169 0.805301 3.701025 -0.200169 0.805304 0.000000 0.000001 0.000000 0.000001 0.000001 -0.000000 -3.980750 11.248896 4.519084 38.943451 7.254776 -58.065200 19.344858 -78.455945 0.009970 7.077275 -10.450863 2.267447 -10.201107 5.896865 -1.434611 -2.114613 2.098879 6.404751 0.000001 -0.000004 -0.000001 -1.502585 -3.779374 -20.337520 -3.383386 -2.228991 -43.465784 0.000002 -0.000002 0.000001 -1.932179 -1.061968 -29.970149 -3.185293 -3.616642 -36.571145 0.000000 0.000001 -0.000003 0.465530 7.812581 -39.281572 0.588449 -2.356694 -37.898633 -0.000000 -0.000002 -0.000001 1.709537 17.168080 -35.179808 2.506121 -4.610360 -50.289129 -0.000001 -0.000003 0.000001 0.000000 -0.000003 0.000001 0.000000 -0.000003 0.000001 0.000000 -0.000003 0.000001 -0.000002 -0.000003 -0.000002 -0.000002 -0.000003 -0.000002 -0.000002 -0.000003 -0.000002 -0.000001 -0.000003 -0.000001 -0.482816 15.538619 -7.511321 -50.912175 16.665173 20.981100 -106.849881 93.835208 96.523263 22.908115 13.060116 -30.382208 -6.976457 -9.455989 -4.908469 3.282068 -5.755366 -8.588205 0.000002 -0.000005 -0.000003 -3.116803 0.480013 20.988695 -3.076098 0.809475 40.932607 0.000000 -0.000003 0.000002 -3.034888 -0.607891 27.748262 -2.698158 2.109026 32.009084 -0.000002 -0.000001 0.000002 2.312270 -7.668072 35.702362 0.490908 3.595890 36.583316 -0.000002 -0.000001 -0.000002 4.807575 -15.562227 32.265715 2.078030 7.872935 42.219950 0.000002 0.000002 -0.000003 -0.000003 0.000003 0.000000 -0.000000 0.000003 0.000002 -0.000003 0.000003 0.000002 0.000003 -0.000001 -0.000000 0.000003 0.000000 -0.000001 0.000003 -0.000001 -0.000000 0.000003 -0.000000 0.000001 -0.000002 0.000001 -0.000000 -0.000002 0.000001 -0.000000 -0.000002 0.000001 -0.000000 -0.000002 0.000001 -0.000000 -0.000002 0.000001 -0.000000 -0.000002 0.000001 -0.000000 -0.000002 0.000001 -0.000000 0.000001 0.000000 -0.000000 0.000002 0.000001 -0.000001 
